<svg xmlns="http://www.w3.org/2000/svg" xmlns:xlink="http://www.w3.org/1999/xlink" width="423" zoomAndPan="magnify" viewBox="0 0 317.25 317.249988" height="423" preserveAspectRatio="xMidYMid meet" version="1.0"><defs><clipPath id="436b7a887f"><path d="M 0 1 L 316.5 1 L 316.5 316.5 L 0 316.5 Z M 0 1 " clip-rule="nonzero"/></clipPath></defs><g clip-path="url(#436b7a887f)"><path fill="#000000" d="M 158.25 1.628906 C 70.851562 1.628906 0 72.113281 0 159.0625 C 0 246.015625 70.851562 316.5 158.25 316.5 C 245.648438 316.5 316.5 246.015625 316.5 159.0625 C 316.5 72.113281 245.648438 1.628906 158.25 1.628906 Z M 158.25 1.628906 " fill-opacity="1" fill-rule="nonzero"/></g><path fill="#ffffff" d="M 83.589844 188.378906 C 84.546875 189.085938 85.589844 189.636719 86.710938 190.035156 C 87.832031 190.4375 88.984375 190.664062 90.175781 190.722656 C 91.363281 190.78125 92.535156 190.664062 93.691406 190.378906 C 94.84375 190.089844 95.933594 189.640625 96.957031 189.03125 C 98.320312 188.21875 99.476562 187.171875 100.425781 185.890625 C 114.085938 167.554688 134.976562 157.027344 157.742188 157.027344 C 180.511719 157.027344 201.402344 167.554688 215.0625 185.890625 C 216.011719 187.167969 217.167969 188.214844 218.53125 189.027344 C 219.902344 189.847656 221.375 190.375 222.953125 190.609375 C 224.53125 190.839844 226.097656 190.765625 227.644531 190.375 C 229.191406 189.992188 230.605469 189.328125 231.890625 188.378906 C 232.84375 187.675781 233.675781 186.851562 234.386719 185.898438 C 235.09375 184.949219 235.648438 183.914062 236.050781 182.796875 C 236.453125 181.679688 236.679688 180.53125 236.738281 179.347656 C 236.796875 178.160156 236.683594 176.992188 236.390625 175.84375 C 236.003906 174.300781 235.332031 172.890625 234.382812 171.617188 C 230.160156 165.949219 225.375 160.808594 220.03125 156.183594 L 220.03125 122.21875 C 220.03125 115.605469 214.648438 110.230469 208.003906 110.230469 C 201.359375 110.230469 195.980469 115.59375 195.980469 122.21875 L 195.980469 140.964844 C 189.945312 138.34375 183.710938 136.371094 177.269531 135.039062 C 170.832031 133.707031 164.324219 133.046875 157.746094 133.0625 C 151.167969 133.046875 144.660156 133.707031 138.21875 135.035156 C 131.777344 136.367188 125.542969 138.34375 119.507812 140.964844 L 119.507812 122.207031 C 119.507812 115.59375 114.128906 110.21875 107.484375 110.21875 C 100.835938 110.21875 95.457031 115.582031 95.457031 122.207031 L 95.457031 156.164062 C 90.109375 160.789062 85.320312 165.9375 81.09375 171.605469 C 80.144531 172.878906 79.476562 174.285156 79.089844 175.828125 C 78.699219 177.367188 78.621094 178.925781 78.855469 180.496094 C 79.09375 182.070312 79.621094 183.539062 80.441406 184.902344 C 81.261719 186.265625 82.308594 187.421875 83.589844 188.367188 Z M 83.589844 188.378906 " fill-opacity="1" fill-rule="nonzero"/><path fill="#ffffff" d="M 154.15625 207.308594 C 151.738281 207.363281 149.402344 206.957031 147.148438 206.078125 C 144.902344 205.207031 142.910156 203.933594 141.175781 202.261719 C 139.445312 200.59375 138.113281 198.65625 137.167969 196.445312 C 136.703125 195.355469 136.355469 194.230469 136.117188 193.070312 C 135.878906 191.910156 135.761719 190.734375 135.761719 189.550781 C 135.761719 188.367188 135.878906 187.191406 136.117188 186.03125 C 136.355469 184.871094 136.703125 183.746094 137.167969 182.65625 C 138.113281 180.445312 139.445312 178.507812 141.175781 176.839844 C 142.910156 175.164062 144.902344 173.890625 147.148438 173.019531 C 147.96875 172.703125 148.804688 172.445312 149.660156 172.25 C 150.515625 172.054688 151.378906 171.921875 152.253906 171.851562 C 153.125 171.78125 154 171.773438 154.875 171.828125 C 155.753906 171.886719 156.617188 172.003906 157.476562 172.1875 C 158.335938 172.371094 159.175781 172.613281 159.996094 172.917969 C 160.820312 173.222656 161.617188 173.582031 162.386719 174.003906 C 163.15625 174.421875 163.890625 174.894531 164.59375 175.421875 C 165.296875 175.949219 165.953125 176.523438 166.574219 177.144531 C 168.207031 178.796875 169.464844 180.695312 170.351562 182.84375 C 171.234375 184.992188 171.675781 187.226562 171.679688 189.550781 C 171.679688 191.871094 171.234375 194.109375 170.351562 196.257812 C 169.464844 198.40625 168.207031 200.304688 166.574219 201.957031 C 164.929688 203.621094 163.03125 204.914062 160.882812 205.839844 C 158.738281 206.761719 156.492188 207.253906 154.15625 207.308594 Z M 154.15625 207.308594 " fill-opacity="1" fill-rule="evenodd"/></svg>